<svg xmlns="http://www.w3.org/2000/svg" xmlns:xlink="http://www.w3.org/1999/xlink" viewBox="0 0 512 512" width="512" height="512" style="width: 100%; height: 100%; transform: translate3d(0,0,0); content-visibility: visible;" preserveAspectRatio="xMidYMid meet"><defs><clipPath id="__lottie_element_2"><rect width="512" height="512" x="0" y="0"></rect></clipPath><linearGradient id="__lottie_element_9" spreadMethod="pad" gradientUnits="userSpaceOnUse" x1="103.73799896240234" y1="-33.525001525878906" x2="-148.927001953125" y2="48.25600051879883"><stop offset="0%" stop-color="rgb(255,241,72)"></stop><stop offset="23%" stop-color="rgb(250,213,65)"></stop><stop offset="34%" stop-color="rgb(245,186,58)"></stop><stop offset="47%" stop-color="rgb(243,172,55)"></stop><stop offset="57%" stop-color="rgb(240,159,51)"></stop></linearGradient><linearGradient id="__lottie_element_10" spreadMethod="pad" gradientUnits="userSpaceOnUse" x1="9.916999816894531" y1="83.51799774169922" x2="-11.416999816894531" y2="-84.6520004272461"><stop offset="0%" stop-color="rgb(255,255,255)" stop-opacity="0"></stop><stop offset="20%" stop-color="rgb(255,255,255)" stop-opacity="0.5"></stop><stop offset="37%" stop-color="rgb(255,255,255)" stop-opacity="1"></stop></linearGradient><linearGradient id="__lottie_element_11" spreadMethod="pad" gradientUnits="userSpaceOnUse" x1="10.251999855041504" y1="81.02999877929688" x2="-10.331000328063965" y2="-81.21499633789062"><stop offset="0%" stop-color="rgb(255,255,255)" stop-opacity="0"></stop><stop offset="20%" stop-color="rgb(255,255,255)" stop-opacity="0.5"></stop><stop offset="37%" stop-color="rgb(255,255,255)" stop-opacity="1"></stop></linearGradient><linearGradient id="__lottie_element_12" spreadMethod="pad" gradientUnits="userSpaceOnUse" x1="76.11699676513672" y1="-24.937000274658203" x2="-176.5489959716797" y2="56.84400177001953"><stop offset="0%" stop-color="rgb(255,241,72)"></stop><stop offset="23%" stop-color="rgb(250,213,65)"></stop><stop offset="34%" stop-color="rgb(245,186,58)"></stop><stop offset="47%" stop-color="rgb(243,172,55)"></stop><stop offset="57%" stop-color="rgb(240,159,51)"></stop></linearGradient><linearGradient id="__lottie_element_13" spreadMethod="pad" gradientUnits="userSpaceOnUse" x1="3.9070000648498535" y1="34.61399841308594" x2="-5.015999794006348" y2="-35.720001220703125"><stop offset="0%" stop-color="rgb(255,255,255)" stop-opacity="0"></stop><stop offset="20%" stop-color="rgb(255,255,255)" stop-opacity="0.5"></stop><stop offset="37%" stop-color="rgb(255,255,255)" stop-opacity="1"></stop></linearGradient><linearGradient id="__lottie_element_14" spreadMethod="pad" gradientUnits="userSpaceOnUse" x1="3.8499999046325684" y1="32.96099853515625" x2="-4.65500020980835" y2="-34.08100128173828"><stop offset="0%" stop-color="rgb(255,255,255)" stop-opacity="0"></stop><stop offset="20%" stop-color="rgb(255,255,255)" stop-opacity="0.5"></stop><stop offset="37%" stop-color="rgb(255,255,255)" stop-opacity="1"></stop></linearGradient><linearGradient id="__lottie_element_15" spreadMethod="pad" gradientUnits="userSpaceOnUse" x1="-25.43400001525879" y1="-0.17599999904632568" x2="23.510000228881836" y2="-0.17599999904632568"><stop offset="0%" stop-color="rgb(255,255,255)" stop-opacity="0"></stop><stop offset="37%" stop-color="rgb(255,255,255)" stop-opacity="0.5"></stop><stop offset="100%" stop-color="rgb(255,255,255)" stop-opacity="1"></stop></linearGradient><linearGradient id="__lottie_element_16" spreadMethod="pad" gradientUnits="userSpaceOnUse" x1="0.0560000017285347" y1="-120.2249984741211" x2="-5.689000129699707" y2="-82.30999755859375"><stop offset="0%" stop-color="rgb(0,206,53)"></stop><stop offset="66%" stop-color="rgb(0,181,46)"></stop><stop offset="100%" stop-color="rgb(0,155,40)"></stop></linearGradient><linearGradient id="__lottie_element_17" spreadMethod="pad" gradientUnits="userSpaceOnUse" x1="-32.18299865722656" y1="-0.257999986410141" x2="31.128000259399414" y2="-0.257999986410141"><stop offset="0%" stop-color="rgb(255,255,255)" stop-opacity="1"></stop><stop offset="63%" stop-color="rgb(255,255,255)" stop-opacity="0.5"></stop><stop offset="100%" stop-color="rgb(255,255,255)" stop-opacity="0"></stop></linearGradient><linearGradient id="__lottie_element_20" spreadMethod="pad" gradientUnits="userSpaceOnUse" x1="-1.4709999561309814" y1="13.8149995803833" x2="-1.4709999561309814" y2="-16.11199951171875"><stop offset="0%" stop-color="rgb(255,255,255)" stop-opacity="0"></stop><stop offset="37%" stop-color="rgb(255,255,255)" stop-opacity="0.5"></stop><stop offset="100%" stop-color="rgb(255,255,255)" stop-opacity="1"></stop></linearGradient><linearGradient id="__lottie_element_24" spreadMethod="pad" gradientUnits="userSpaceOnUse" x1="-0.7509999871253967" y1="42.167999267578125" x2="-0.7509999871253967" y2="-47.41699981689453"><stop offset="0%" stop-color="rgb(255,255,255)" stop-opacity="0"></stop><stop offset="37%" stop-color="rgb(255,255,255)" stop-opacity="0.5"></stop><stop offset="100%" stop-color="rgb(255,255,255)" stop-opacity="1"></stop></linearGradient><linearGradient id="__lottie_element_28" spreadMethod="pad" gradientUnits="userSpaceOnUse" x1="-0.49300000071525574" y1="38.15299987792969" x2="-0.49300000071525574" y2="-42.15299987792969"><stop offset="0%" stop-color="rgb(255,255,255)" stop-opacity="0"></stop><stop offset="37%" stop-color="rgb(255,255,255)" stop-opacity="0.5"></stop><stop offset="100%" stop-color="rgb(255,255,255)" stop-opacity="1"></stop></linearGradient><linearGradient id="__lottie_element_34" spreadMethod="pad" gradientUnits="userSpaceOnUse" x1="-63.09700012207031" y1="32.30099868774414" x2="137.87600708007812" y2="-5.894000053405762"><stop offset="0%" stop-color="rgb(255,0,45)"></stop><stop offset="25%" stop-color="rgb(216,0,40)"></stop><stop offset="57%" stop-color="rgb(178,0,34)"></stop></linearGradient><linearGradient id="__lottie_element_35" spreadMethod="pad" gradientUnits="userSpaceOnUse" x1="3.2320001125335693" y1="-26.777999877929688" x2="2.444000005722046" y2="38.99599838256836"><stop offset="0%" stop-color="rgb(255,255,255)" stop-opacity="0"></stop><stop offset="20%" stop-color="rgb(255,255,255)" stop-opacity="0.5"></stop><stop offset="37%" stop-color="rgb(255,255,255)" stop-opacity="1"></stop></linearGradient><linearGradient id="__lottie_element_36" spreadMethod="pad" gradientUnits="userSpaceOnUse" x1="-0.15600000321865082" y1="-31.406999588012695" x2="-1.1469999551773071" y2="34.96900177001953"><stop offset="0%" stop-color="rgb(255,255,255)" stop-opacity="0"></stop><stop offset="41%" stop-color="rgb(255,255,255)" stop-opacity="0.5"></stop><stop offset="77%" stop-color="rgb(255,255,255)" stop-opacity="1"></stop></linearGradient><linearGradient id="__lottie_element_37" spreadMethod="pad" gradientUnits="userSpaceOnUse" x1="-62.35900115966797" y1="31.291000366210938" x2="117.71099853515625" y2="-32.4900016784668"><stop offset="0%" stop-color="rgb(255,0,45)"></stop><stop offset="25%" stop-color="rgb(216,0,40)"></stop><stop offset="57%" stop-color="rgb(178,0,34)"></stop></linearGradient><linearGradient id="__lottie_element_38" spreadMethod="pad" gradientUnits="userSpaceOnUse" x1="2.200000047683716" y1="-25.716999053955078" x2="8.329999923706055" y2="49.21099853515625"><stop offset="0%" stop-color="rgb(255,255,255)" stop-opacity="0"></stop><stop offset="20%" stop-color="rgb(255,255,255)" stop-opacity="0.5"></stop><stop offset="37%" stop-color="rgb(255,255,255)" stop-opacity="1"></stop></linearGradient><linearGradient id="__lottie_element_39" spreadMethod="pad" gradientUnits="userSpaceOnUse" x1="-9.64799976348877" y1="-14.07699966430664" x2="-0.9549999833106995" y2="48.24800109863281"><stop offset="0%" stop-color="rgb(255,255,255)" stop-opacity="0"></stop><stop offset="20%" stop-color="rgb(255,255,255)" stop-opacity="0.5"></stop><stop offset="37%" stop-color="rgb(255,255,255)" stop-opacity="1"></stop></linearGradient><linearGradient id="__lottie_element_40" spreadMethod="pad" gradientUnits="userSpaceOnUse" x1="16.700000762939453" y1="11.821999549865723" x2="-18.239999771118164" y2="0.9369999766349792"><stop offset="0%" stop-color="rgb(255,255,255)" stop-opacity="0"></stop><stop offset="37%" stop-color="rgb(255,255,255)" stop-opacity="0.5"></stop><stop offset="100%" stop-color="rgb(255,255,255)" stop-opacity="1"></stop></linearGradient><linearGradient id="__lottie_element_41" spreadMethod="pad" gradientUnits="userSpaceOnUse" x1="52.26499938964844" y1="-28.195999145507812" x2="48.255001068115234" y2="-57.20100021362305"><stop offset="0%" stop-color="rgb(243,131,255)"></stop><stop offset="66%" stop-color="rgb(230,99,247)"></stop><stop offset="100%" stop-color="rgb(217,67,239)"></stop></linearGradient><linearGradient id="__lottie_element_42" spreadMethod="pad" gradientUnits="userSpaceOnUse" x1="16.86400032043457" y1="-0.9810000061988831" x2="-20.197999954223633" y2="8.487000465393066"><stop offset="0%" stop-color="rgb(255,255,255)" stop-opacity="1"></stop><stop offset="63%" stop-color="rgb(255,255,255)" stop-opacity="0.5"></stop><stop offset="100%" stop-color="rgb(255,255,255)" stop-opacity="0"></stop></linearGradient><linearGradient id="__lottie_element_45" spreadMethod="pad" gradientUnits="userSpaceOnUse" x1="56.637001037597656" y1="11.881999969482422" x2="56.637001037597656" y2="38.632999420166016"><stop offset="0%" stop-color="rgb(255,255,255)" stop-opacity="0"></stop><stop offset="37%" stop-color="rgb(255,255,255)" stop-opacity="0.5"></stop><stop offset="100%" stop-color="rgb(255,255,255)" stop-opacity="1"></stop></linearGradient><linearGradient id="__lottie_element_49" spreadMethod="pad" gradientUnits="userSpaceOnUse" x1="-57.584999084472656" y1="35.9630012512207" x2="-57.584999084472656" y2="112.90499877929688"><stop offset="0%" stop-color="rgb(255,255,255)" stop-opacity="0"></stop><stop offset="37%" stop-color="rgb(255,255,255)" stop-opacity="0.5"></stop><stop offset="100%" stop-color="rgb(255,255,255)" stop-opacity="1"></stop></linearGradient><linearGradient id="__lottie_element_53" spreadMethod="pad" gradientUnits="userSpaceOnUse" x1="182.5570068359375" y1="32.487998962402344" x2="182.5570068359375" y2="101.66799926757812"><stop offset="0%" stop-color="rgb(255,255,255)" stop-opacity="0"></stop><stop offset="37%" stop-color="rgb(255,255,255)" stop-opacity="0.5"></stop><stop offset="100%" stop-color="rgb(255,255,255)" stop-opacity="1"></stop></linearGradient><linearGradient id="__lottie_element_59" spreadMethod="pad" gradientUnits="userSpaceOnUse"><stop></stop><stop></stop><stop></stop><stop></stop><stop></stop></linearGradient><linearGradient id="__lottie_element_60" spreadMethod="pad" gradientUnits="userSpaceOnUse"><stop></stop><stop></stop><stop></stop></linearGradient><linearGradient id="__lottie_element_61" spreadMethod="pad" gradientUnits="userSpaceOnUse"><stop></stop><stop></stop><stop></stop></linearGradient><linearGradient id="__lottie_element_62" spreadMethod="pad" gradientUnits="userSpaceOnUse"><stop></stop><stop></stop><stop></stop><stop></stop><stop></stop></linearGradient><linearGradient id="__lottie_element_63" spreadMethod="pad" gradientUnits="userSpaceOnUse"><stop></stop><stop></stop><stop></stop></linearGradient><linearGradient id="__lottie_element_64" spreadMethod="pad" gradientUnits="userSpaceOnUse"><stop></stop><stop></stop><stop></stop></linearGradient><linearGradient id="__lottie_element_65" spreadMethod="pad" gradientUnits="userSpaceOnUse"><stop></stop><stop></stop><stop></stop></linearGradient><linearGradient id="__lottie_element_66" spreadMethod="pad" gradientUnits="userSpaceOnUse"><stop></stop><stop></stop><stop></stop></linearGradient><linearGradient id="__lottie_element_67" spreadMethod="pad" gradientUnits="userSpaceOnUse"><stop></stop><stop></stop><stop></stop></linearGradient><linearGradient id="__lottie_element_70" spreadMethod="pad" gradientUnits="userSpaceOnUse"><stop></stop><stop></stop><stop></stop></linearGradient><linearGradient id="__lottie_element_74" spreadMethod="pad" gradientUnits="userSpaceOnUse"><stop></stop><stop></stop><stop></stop></linearGradient><linearGradient id="__lottie_element_78" spreadMethod="pad" gradientUnits="userSpaceOnUse"><stop></stop><stop></stop><stop></stop></linearGradient></defs><g clip-path="url(#__lottie_element_2)"><g style="display: none;"><g><path fill="url(#__lottie_element_59)"></path></g><g><path stroke="url(#__lottie_element_60)" stroke-linecap="butt" stroke-linejoin="miter" fill-opacity="0" stroke-miterlimit="10"></path></g><g><path stroke-linecap="round" stroke-linejoin="round" fill-opacity="0"></path></g><g><path></path></g><g><path></path></g><g><path></path></g><g><path></path><path stroke-linecap="round" stroke-linejoin="round" fill-opacity="0"></path></g><g><path></path></g><g><path></path></g><g><path stroke="url(#__lottie_element_61)" stroke-linecap="butt" stroke-linejoin="miter" fill-opacity="0" stroke-miterlimit="10"></path></g><g><path stroke-linecap="round" stroke-linejoin="round" fill-opacity="0"></path></g><g><path></path></g><g><path></path></g><g><path></path><path stroke-linecap="round" stroke-linejoin="round" fill-opacity="0"></path></g><g><path></path></g><g><path></path></g><g><path fill="url(#__lottie_element_62)"></path></g><g><path></path></g><g><path stroke="url(#__lottie_element_63)" stroke-linecap="butt" stroke-linejoin="miter" fill-opacity="0" stroke-miterlimit="10"></path></g><g><path stroke-linecap="round" stroke-linejoin="round" fill-opacity="0"></path></g><g><path></path></g><g><path></path></g><g><path></path></g><g><path stroke="url(#__lottie_element_64)" stroke-linecap="butt" stroke-linejoin="miter" fill-opacity="0" stroke-miterlimit="10"></path></g><g><path stroke-linecap="round" stroke-linejoin="round" fill-opacity="0"></path></g><g><path></path></g><g><path></path><path stroke-linecap="round" stroke-linejoin="round" fill-opacity="0"></path></g><g><path stroke="url(#__lottie_element_65)" stroke-linecap="butt" stroke-linejoin="miter" fill-opacity="0" stroke-miterlimit="10"></path></g><g><path stroke-linecap="round" stroke-linejoin="round" fill-opacity="0"></path></g><g><path fill="url(#__lottie_element_66)"></path><path stroke-linecap="round" stroke-linejoin="round" fill-opacity="0"></path></g><g><path stroke="url(#__lottie_element_67)" stroke-linecap="butt" stroke-linejoin="miter" fill-opacity="0" stroke-miterlimit="10"></path></g><g><path stroke-linecap="round" stroke-linejoin="round" fill-opacity="0"></path></g></g><g style="display: none;"><g><path></path></g><g><path stroke="url(#__lottie_element_78)" stroke-linecap="butt" stroke-linejoin="miter" fill-opacity="0" stroke-miterlimit="10"></path></g><g><path stroke-linecap="round" stroke-linejoin="round" fill-opacity="0"></path></g><g><path></path><path stroke-linecap="round" stroke-linejoin="round" fill-opacity="0"></path></g></g><g style="display: none;"><g><path></path></g><g><path stroke="url(#__lottie_element_74)" stroke-linecap="butt" stroke-linejoin="miter" fill-opacity="0" stroke-miterlimit="10"></path></g><g><path stroke-linecap="round" stroke-linejoin="round" fill-opacity="0"></path></g><g><path></path><path stroke-linecap="round" stroke-linejoin="round" fill-opacity="0"></path></g></g><g style="display: none;"><g><path></path><path stroke-linecap="round" stroke-linejoin="round" fill-opacity="0"></path></g><g><path stroke="url(#__lottie_element_70)" stroke-linecap="butt" stroke-linejoin="miter" fill-opacity="0" stroke-miterlimit="10"></path></g><g><path stroke-linecap="round" stroke-linejoin="round" fill-opacity="0"></path></g></g><g style="display: block;" transform="matrix(1,0,0,1,572,0)" opacity="1"><g opacity="1" transform="matrix(1,0,0,1,-364.3009948730469,320.3810119628906)"><path fill="url(#__lottie_element_34)" fill-opacity="1" d=" M68.87899780273438,18.8799991607666 C70.14199829101562,-6.026000022888184 73.55599975585938,-15.420000076293945 68.46499633789062,-75.3740005493164 C68.46499633789062,-75.3740005493164 -71.17400360107422,-33.90399932861328 -71.17400360107422,-33.90399932861328 C-71.17400360107422,-33.90399932861328 -71.17400360107422,75.3740005493164 -71.17400360107422,75.3740005493164 C-71.17400360107422,75.3740005493164 0.3440000116825104,64.02799987792969 63.4640007019043,29.34000015258789 C66.5270004272461,27.6560001373291 68.63999938964844,23.586999893188477 68.87899780273438,18.8799991607666z"></path></g><g opacity="0.5" transform="matrix(1,0,0,1,-300.4909973144531,313.6830139160156)"><path stroke="url(#__lottie_element_35)" stroke-linecap="butt" stroke-linejoin="miter" fill-opacity="0" stroke-miterlimit="10" stroke-opacity="1" stroke-width="13" d=" M0,-36.03799819946289 C0,-36.03799819946289 0,36.03799819946289 0,36.03799819946289"></path></g><g opacity="1" transform="matrix(1,0,0,1,-495.20098876953125,313.3800048828125)"><path fill="rgb(255,0,45)" fill-opacity="1" d=" M-58.41999816894531,-82.375 C-60.05799865722656,-81.50299835205078 -60.141998291015625,-65.9000015258789 -58.749000549316406,13.569000244140625 C-58.67599868774414,17.71500015258789 -56.9109992980957,21.422000885009766 -54.37900161743164,23.408000946044922 C-40.22100067138672,34.513999938964844 9.036999702453613,64.2699966430664 59.72600173950195,82.375 C59.72600173950195,82.375 59.72600173950195,-26.902999877929688 59.72600173950195,-26.902999877929688 C59.72600173950195,-26.902999877929688 -58.41999816894531,-82.375 -58.41999816894531,-82.375z"></path></g><g opacity="0.5" transform="matrix(1,0,0,1,-546.0679931640625,301.5039978027344)"><path stroke="url(#__lottie_element_36)" stroke-linecap="butt" stroke-linejoin="miter" fill-opacity="0" stroke-miterlimit="10" stroke-opacity="1" stroke-width="13" d=" M0,-35.28499984741211 C0,-35.28499984741211 0,35.28499984741211 0,35.28499984741211"></path></g><g opacity="1" transform="matrix(1,0,0,1,-364.87200927734375,320.3810119628906)"><path stroke-linecap="round" stroke-linejoin="round" fill-opacity="0" stroke="rgb(124,0,24)" stroke-opacity="1" stroke-width="13" d=" M69.44999694824219,21.58300018310547 C70.2969970703125,15.520999908447266 71.74500274658203,-24.673999786376953 69.03600311279297,-75.3740005493164 C69.03600311279297,-75.3740005493164 -70.60299682617188,-33.90399932861328 -70.60299682617188,-33.90399932861328 C-70.60299682617188,-33.90399932861328 -70.60299682617188,75.3740005493164 -70.60299682617188,75.3740005493164 C-70.60299682617188,75.3740005493164 3.1019999980926514,61.63999938964844 64.03500366210938,32.042999267578125 C67.16300201416016,30.523000717163086 68.80000305175781,26.23900032043457 69.44999694824219,21.58300018310547z"></path></g><g opacity="1" transform="matrix(1,0,0,1,-495.20098876953125,313.3800048828125)"><path stroke-linecap="round" stroke-linejoin="round" fill-opacity="0" stroke="rgb(165,0,36)" stroke-opacity="1" stroke-width="13" d=" M-58.41999816894531,-82.375 C-60.05799865722656,-81.50299835205078 -60.141998291015625,-65.9000015258789 -58.749000549316406,13.569000244140625 C-58.67599868774414,17.71500015258789 -56.9109992980957,21.422000885009766 -54.37900161743164,23.408000946044922 C-40.22100067138672,34.513999938964844 19.84600067138672,65.21499633789062 59.72600173950195,82.375 C59.72600173950195,82.375 59.72600173950195,-26.902999877929688 59.72600173950195,-26.902999877929688 C59.72600173950195,-26.902999877929688 -58.41999816894531,-82.375 -58.41999816894531,-82.375z"></path></g><g opacity="1" transform="matrix(1,0,0,1,-424.31298828125,216.4770050048828)"><path fill="rgb(255,0,45)" fill-opacity="1" d=" M136.75799560546875,-3.188999891281128 C136.75799560546875,-3.188999891281128 75.86399841308594,-21.552000045776367 1.8910000324249268,-35.28900146484375 C1.8910000324249268,-35.28900146484375 -80.69200134277344,-21.586999893188477 -136.75799560546875,-13.670000076293945 C-136.75799560546875,-13.670000076293945 -11.16100025177002,35.28900146484375 -11.16100025177002,35.28900146484375 C-11.16100025177002,35.28900146484375 136.75799560546875,-3.188999891281128 136.75799560546875,-3.188999891281128z"></path><path stroke-linecap="round" stroke-linejoin="round" fill-opacity="0" stroke="rgb(165,0,36)" stroke-opacity="1" stroke-width="13" d=" M136.75799560546875,-3.188999891281128 C136.75799560546875,-3.188999891281128 75.86399841308594,-21.552000045776367 1.8910000324249268,-35.28900146484375 C1.8910000324249268,-35.28900146484375 -80.69200134277344,-21.586999893188477 -136.75799560546875,-13.670000076293945 C-136.75799560546875,-13.670000076293945 -11.16100025177002,35.28900146484375 -11.16100025177002,35.28900146484375 C-11.16100025177002,35.28900146484375 136.75799560546875,-3.188999891281128 136.75799560546875,-3.188999891281128z"></path></g><g opacity="1" transform="matrix(1,0,0,1,-360.3179931640625,264.1619873046875)"><path fill="url(#__lottie_element_37)" fill-opacity="1" d=" M75.13800048828125,3.2300000190734863 C75.2249984741211,-6.7829999923706055 75.09600067138672,-29.05500030517578 72.76300048828125,-50.875 C72.76300048828125,-50.875 -75.15699768066406,-12.395999908447266 -75.15699768066406,-12.395999908447266 C-75.15699768066406,-12.395999908447266 -75.15699768066406,50.875 -75.15699768066406,50.875 C-75.15699768066406,50.875 23.697999954223633,25.13800048828125 71.37799835205078,9.881999969482422 C73.55400085449219,9.185999870300293 75.11000061035156,6.438000202178955 75.13800048828125,3.2300000190734863z"></path></g><g opacity="0.5" transform="matrix(1,0,0,1,-294.57501220703125,245.92300415039062)"><path stroke="url(#__lottie_element_38)" stroke-linecap="butt" stroke-linejoin="miter" fill-opacity="0" stroke-miterlimit="10" stroke-opacity="1" stroke-width="13" d=" M-1.4479999542236328,-29.445999145507812 C-1.4479999542236328,-29.445999145507812 1.4479999542236328,29.445999145507812 1.4479999542236328,29.445999145507812"></path></g><g opacity="1" transform="matrix(1,0,0,1,-498.27301025390625,258.9219970703125)"><path fill="rgb(255,0,45)" fill-opacity="1" d=" M62.79899978637695,56.1150016784668 C62.79899978637695,56.1150016784668 -0.11400000005960464,32.15599822998047 -59.65399932861328,0.8149999976158142 C-61.54399871826172,-0.18000000715255737 -62.79899978637695,-2.7750000953674316 -62.79899978637695,-5.671999931335449 C-62.79899978637695,-5.671999931335449 -62.79899978637695,-56.1150016784668 -62.79899978637695,-56.1150016784668 C-62.79899978637695,-56.1150016784668 62.79899978637695,-7.156000137329102 62.79899978637695,-7.156000137329102 C62.79899978637695,-7.156000137329102 62.79899978637695,56.1150016784668 62.79899978637695,56.1150016784668z"></path></g><g opacity="0.5" transform="matrix(1,0,0,1,-553.77001953125,233.781005859375)"><path stroke="url(#__lottie_element_39)" stroke-linecap="butt" stroke-linejoin="miter" fill-opacity="0" stroke-miterlimit="10" stroke-opacity="1" stroke-width="13" d=" M0,-28.128000259399414 C0,-28.128000259399414 0,28.128000259399414 0,28.128000259399414"></path></g><g opacity="1" transform="matrix(1,0,0,1,-360.3179931640625,264.1619873046875)"><path stroke-linecap="round" stroke-linejoin="round" fill-opacity="0" stroke="rgb(124,0,24)" stroke-opacity="1" stroke-width="13" d=" M75.13800048828125,3.2300000190734863 C75.2249984741211,-6.7829999923706055 75.09600067138672,-29.05500030517578 72.76300048828125,-50.875 C72.76300048828125,-50.875 -75.15699768066406,-12.395999908447266 -75.15699768066406,-12.395999908447266 C-75.15699768066406,-12.395999908447266 -75.15699768066406,50.875 -75.15699768066406,50.875 C-75.15699768066406,50.875 23.697999954223633,25.13800048828125 71.37799835205078,9.881999969482422 C73.55400085449219,9.185999870300293 75.11000061035156,6.438000202178955 75.13800048828125,3.2300000190734863z"></path></g><g opacity="1" transform="matrix(1,0,0,1,-498.27301025390625,258.9219970703125)"><path stroke-linecap="round" stroke-linejoin="round" fill-opacity="0" stroke="rgb(165,0,36)" stroke-opacity="1" stroke-width="13" d=" M62.79899978637695,56.1150016784668 C62.79899978637695,56.1150016784668 -0.11400000005960464,32.15599822998047 -59.65399932861328,0.8149999976158142 C-61.54399871826172,-0.18000000715255737 -62.79899978637695,-2.7750000953674316 -62.79899978637695,-5.671999931335449 C-62.79899978637695,-5.671999931335449 -62.79899978637695,-56.1150016784668 -62.79899978637695,-56.1150016784668 C-62.79899978637695,-56.1150016784668 62.79899978637695,-7.156000137329102 62.79899978637695,-7.156000137329102 C62.79899978637695,-7.156000137329102 62.79899978637695,56.1150016784668 62.79899978637695,56.1150016784668z"></path></g><g opacity="1" transform="matrix(1,0,0,1,-437.10400390625,279.3039855957031)"><path fill="rgb(243,131,255)" fill-opacity="1" d=" M89.88099670410156,-81.91799926757812 C89.88099670410156,-81.91799926757812 -44.084999084472656,-68.70999908447266 -51.62799835205078,-48.29899978637695 C-59.17100143432617,-27.88800048828125 -55.132999420166016,77.56300354003906 -54.72999954223633,89.43499755859375 C-54.4640007019043,97.2750015258789 -87.75399780273438,87.84700012207031 -89.12799835205078,74.25800323486328 C-90.50199890136719,60.667999267578125 -90.5530014038086,-49.64899826049805 -84.38600158691406,-62.82699966430664 C-78.21900177001953,-76.00499725341797 57.46200180053711,-92.28199768066406 57.46200180053711,-92.28199768066406 C57.46200180053711,-92.28199768066406 72.01200103759766,-91.24500274658203 89.88099670410156,-81.91799926757812z"></path></g><g opacity="0.4" transform="matrix(1,0,0,1,-505.11199951171875,223.74099731445312)"><path stroke="url(#__lottie_element_40)" stroke-linecap="butt" stroke-linejoin="miter" fill-opacity="0" stroke-miterlimit="10" stroke-opacity="1" stroke-width="13" d=" M-16.378999710083008,-7.263999938964844 C-16.378999710083008,-7.263999938964844 16.378999710083008,7.263999938964844 16.378999710083008,7.263999938964844"></path></g><g opacity="1" transform="matrix(1,0,0,1,-437.08599853515625,279.91400146484375)"><path stroke-linecap="round" stroke-linejoin="round" fill-opacity="0" stroke="rgb(191,27,219)" stroke-opacity="1" stroke-width="13" d=" M89.86299896240234,-82.52899932861328 C89.86299896240234,-82.52899932861328 -44.10300064086914,-69.31999969482422 -51.645999908447266,-48.909000396728516 C-59.18899917602539,-28.49799919128418 -55.1510009765625,78.75499725341797 -54.74800109863281,90.62699890136719 C-54.481998443603516,98.46700286865234 -88.31999969482422,84.13500213623047 -89.14600372314453,75.4489974975586 C-90.43900299072266,61.8489990234375 -90.57099914550781,-50.2599983215332 -84.40399932861328,-63.4379997253418 C-78.23699951171875,-76.61599731445312 57.44499969482422,-92.89299774169922 57.44499969482422,-92.89299774169922 C57.44499969482422,-92.89299774169922 71.99400329589844,-91.85600280761719 89.86299896240234,-82.52899932861328z"></path></g><g opacity="1" transform="matrix(1,0,0,1,-415.89599609375,283.8380126953125)"><path fill="url(#__lottie_element_41)" fill-opacity="1" d=" M80.77799987792969,82.16899871826172 C80.77799987792969,82.16899871826172 85.93399810791016,-22.430999755859375 77.72699737548828,-57.38399887084961 C75.5,-66.86799621582031 -6.077000141143799,-89.61000061035156 -48.415000915527344,-96.81600189208984 C-48.415000915527344,-96.81600189208984 -82.37699890136719,-92.75499725341797 -82.37699890136719,-92.75499725341797 C-82.37699890136719,-92.75499725341797 19.5,-64.56900024414062 32.98500061035156,-45.744998931884766 C46.470001220703125,-26.92099952697754 40.34199905395508,88.09300231933594 40.45500183105469,94.71600341796875 C40.56800079345703,101.33899688720703 80.3949966430664,90.95800018310547 80.77799987792969,82.16899871826172z"></path></g><g opacity="0.4" transform="matrix(1,0,0,1,-360.5400085449219,232.2729949951172)"><path stroke="url(#__lottie_element_42)" stroke-linecap="butt" stroke-linejoin="miter" fill-opacity="0" stroke-miterlimit="10" stroke-opacity="1" stroke-width="13" d=" M22.371000289916992,-5.818999767303467 C22.371000289916992,-5.818999767303467 -22.371000289916992,5.818999767303467 -22.371000289916992,5.818999767303467"></path></g><g opacity="1" transform="matrix(1,0,0,1,-415.89599609375,285.5589904785156)"><path stroke-linecap="round" stroke-linejoin="round" fill-opacity="0" stroke="rgb(144,2,178)" stroke-opacity="1" stroke-width="13" d=" M80.77799987792969,82.25 C80.77799987792969,82.25 85.93399810791016,-24.152000427246094 77.72699737548828,-59.10499954223633 C75.5,-68.58899688720703 -6.077000141143799,-91.33200073242188 -48.415000915527344,-98.53800201416016 C-48.415000915527344,-98.53800201416016 -82.37699890136719,-94.47599792480469 -82.37699890136719,-94.47599792480469 C-82.37699890136719,-94.47599792480469 19.5,-66.29100036621094 32.98500061035156,-47.46699905395508 C46.470001220703125,-28.64299964904785 40.34199905395508,90.86900329589844 40.45500183105469,97.49199676513672 C40.5369987487793,102.32099914550781 80.4729995727539,89.24800109863281 80.77799987792969,82.25z"></path></g></g><g style="display: block;" transform="matrix(1,0,0,1,572,0)" opacity="1"><g opacity="1" transform="matrix(1,0,0,1,-364.8280029296875,150.48500061035156)"><path fill="rgb(243,131,255)" fill-opacity="1" d=" M-51.720001220703125,33.46200180053711 C-51.720001220703125,33.46200180053711 -24.590999603271484,-56.14699935913086 8.215999603271484,-53.22200012207031 C41.02299880981445,-50.297000885009766 63.106998443603516,23.035999298095703 45.500999450683594,37.61800003051758 C27.895000457763672,52.20000076293945 -42.05699920654297,53.29199981689453 -42.05699920654297,53.29199981689453 C-42.05699920654297,53.29199981689453 -51.720001220703125,33.46200180053711 -51.720001220703125,33.46200180053711z"></path></g><g opacity="0.5" transform="matrix(1,0,0,1,-363.73199462890625,135.44400024414062)"><path stroke="url(#__lottie_element_53)" stroke-linecap="butt" stroke-linejoin="miter" fill-opacity="0" stroke-miterlimit="10" stroke-opacity="1" stroke-width="13" d=" M46.26300048828125,7.626999855041504 C37.417999267578125,-12.986000061035156 19.503999710083008,-29.729000091552734 7.306000232696533,-29.729000091552734 C-12.312999725341797,-29.729000091552734 -46.26300048828125,29.729000091552734 -46.26300048828125,29.729000091552734"></path></g><g opacity="1" transform="matrix(1,0,0,1,-364.8280029296875,150.48500061035156)"><path stroke-linecap="round" stroke-linejoin="round" fill-opacity="0" stroke="rgb(191,27,219)" stroke-opacity="1" stroke-width="13" d=" M-51.720001220703125,33.46200180053711 C-51.720001220703125,33.46200180053711 -24.590999603271484,-56.14699935913086 8.215999603271484,-53.22200012207031 C41.02299880981445,-50.297000885009766 63.106998443603516,23.035999298095703 45.500999450683594,37.61800003051758 C27.895000457763672,52.20000076293945 -42.05699920654297,53.29199981689453 -42.05699920654297,53.29199981689453 C-42.05699920654297,53.29199981689453 -51.720001220703125,33.46200180053711 -51.720001220703125,33.46200180053711z"></path></g><g opacity="1" transform="matrix(1,0,0,1,-361.7690124511719,185.7729949951172)"><path fill="rgb(217,67,239)" fill-opacity="1" d=" M-48.224998474121094,11.612000465393066 C-48.224998474121094,11.612000465393066 -45.112998962402344,18 -45.112998962402344,18 C-45.112998962402344,18 24.832000732421875,16.908000946044922 42.43899917602539,2.3259999752044678 C45.56800079345703,-0.257999986410141 47.44300079345703,-4.689000129699707 48.224998474121094,-10.26099967956543 C48.224998474121094,-10.26099967956543 48.224998474121094,-10.270999908447266 48.224998474121094,-10.270999908447266 C37.54800033569336,-32.87200164794922 -27.24799919128418,0.164000004529953 -48.224998474121094,11.612000465393066z"></path><path stroke-linecap="round" stroke-linejoin="round" fill-opacity="0" stroke="rgb(144,2,178)" stroke-opacity="1" stroke-width="13" d=" M-48.224998474121094,11.612000465393066 C-48.224998474121094,11.612000465393066 -45.112998962402344,18 -45.112998962402344,18 C-45.112998962402344,18 24.832000732421875,16.908000946044922 42.43899917602539,2.3259999752044678 C45.56800079345703,-0.257999986410141 47.44300079345703,-4.689000129699707 48.224998474121094,-10.26099967956543 C48.224998474121094,-10.26099967956543 48.224998474121094,-10.270999908447266 48.224998474121094,-10.270999908447266 C37.54800033569336,-32.87200164794922 -27.24799919128418,0.164000004529953 -48.224998474121094,11.612000465393066z"></path></g></g><g style="display: block;" transform="matrix(1,0,0,1,572,0)" opacity="1"><g opacity="1" transform="matrix(1,0,0,1,-484.9949951171875,143.0709991455078)"><path fill="rgb(243,131,255)" fill-opacity="1" d=" M48.16699981689453,41.27299880981445 C40.707000732421875,-14.22599983215332 22.507999420166016,-55.194000244140625 3.234999895095825,-60.4109992980957 C-16.038000106811523,-65.62899780273438 -51.54199981689453,-1.2790000438690186 -51.54199981689453,19.011999130249023 C-51.54199981689453,39.303001403808594 18.451000213623047,61.23099899291992 39.24599838256836,60.70199966430664 C60.04100036621094,60.17300033569336 48.16699981689453,41.27299880981445 48.16699981689453,41.27299880981445z"></path></g><g opacity="0.5" transform="matrix(1,0,0,1,-483.8739929199219,126.96800231933594)"><path stroke="url(#__lottie_element_49)" stroke-linecap="butt" stroke-linejoin="miter" fill-opacity="0" stroke-miterlimit="10" stroke-opacity="1" stroke-width="13" d=" M43.111000061035156,34.02199935913086 C43.111000061035156,34.02199935913086 16.590999603271484,-32.7760009765625 0.9419999718666077,-33.992000579833984 C-15.498000144958496,-35.26900100708008 -43.111000061035156,5.109000205993652 -43.111000061035156,5.109000205993652"></path></g><g opacity="1" transform="matrix(1,0,0,1,-484.9949951171875,143.0709991455078)"><path stroke-linecap="round" stroke-linejoin="round" fill-opacity="0" stroke="rgb(191,27,219)" stroke-opacity="1" stroke-width="13" d=" M48.16699981689453,41.27299880981445 C40.707000732421875,-14.22599983215332 22.507999420166016,-55.194000244140625 3.234999895095825,-60.4109992980957 C-16.038000106811523,-65.62899780273438 -51.54199981689453,-1.2790000438690186 -51.54199981689453,19.011999130249023 C-51.54199981689453,39.303001403808594 18.451000213623047,61.23099899291992 39.24599838256836,60.70199966430664 C60.04100036621094,60.17300033569336 48.16699981689453,41.27299880981445 48.16699981689453,41.27299880981445z"></path></g><g opacity="1" transform="matrix(1,0,0,1,-491.1409912109375,175.11900329589844)"><path fill="rgb(217,67,239)" fill-opacity="1" d=" M-45.391998291015625,-13.041000366210938 C-45.391998291015625,7.250999927520752 24.59600067138672,29.18400001525879 45.391998291015625,28.652999877929688 C24.79400062561035,5.48199987411499 -35.917999267578125,-42.88399887084961 -43.20800018310547,-24.63599967956543 C-44.60900115966797,-20.047000885009766 -45.391998291015625,-16.058000564575195 -45.391998291015625,-13.041000366210938z"></path><path stroke-linecap="round" stroke-linejoin="round" fill-opacity="0" stroke="rgb(144,2,178)" stroke-opacity="1" stroke-width="13" d=" M-45.391998291015625,-13.041000366210938 C-45.391998291015625,7.250999927520752 24.59600067138672,29.18400001525879 45.391998291015625,28.652999877929688 C24.79400062561035,5.48199987411499 -35.917999267578125,-42.88399887084961 -43.20800018310547,-24.63599967956543 C-44.60900115966797,-20.047000885009766 -45.391998291015625,-16.058000564575195 -45.391998291015625,-13.041000366210938z"></path></g></g><g style="display: block;" transform="matrix(1,0,0,1,572,0)" opacity="1"><g opacity="1" transform="matrix(1,0,0,1,-427.4639892578125,191.71800231933594)"><path fill="rgb(243,131,255)" fill-opacity="1" d=" M-23.378000259399414,13.425999641418457 C-25.070999145507812,10.746999740600586 -17.139999389648438,-16.070999145507812 5.3470001220703125,-19.78700065612793 C21.719999313354492,-22.493000030517578 26.211000442504883,13.354999542236328 22.243999481201172,16.451000213623047 C18.277000427246094,19.547000885009766 -16.930999755859375,23.628000259399414 -23.378000259399414,13.425999641418457z"></path></g><g opacity="0.4" transform="matrix(1,0,0,1,-426.6520080566406,189.0489959716797)"><path stroke="url(#__lottie_element_45)" stroke-linecap="butt" stroke-linejoin="miter" fill-opacity="0" stroke-miterlimit="10" stroke-opacity="1" stroke-width="13" d=" M22.47100067138672,7.9019999504089355 C22.47100067138672,7.9019999504089355 15.241000175476074,-6.88700008392334 4.230999946594238,-7.861000061035156 C-6.7789998054504395,-8.835000038146973 -22.47100067138672,7.9019999504089355 -22.47100067138672,7.9019999504089355"></path></g><g opacity="1" transform="matrix(1,0,0,1,-427.4639892578125,191.71800231933594)"><path stroke-linecap="round" stroke-linejoin="round" fill-opacity="0" stroke="rgb(144,2,178)" stroke-opacity="1" stroke-width="13" d=" M-23.378000259399414,13.425999641418457 C-25.070999145507812,10.746999740600586 -17.139999389648438,-16.070999145507812 5.3470001220703125,-19.78700065612793 C21.719999313354492,-22.493000030517578 26.211000442504883,13.354999542236328 22.243999481201172,16.451000213623047 C18.277000427246094,19.547000885009766 -16.930999755859375,23.628000259399414 -23.378000259399414,13.425999641418457z"></path></g></g><g style="display: block;" transform="matrix(1,0,0,1,572,0)" opacity="1"><g opacity="1" transform="matrix(1,0,0,1,-341.0270080566406,355.45599365234375)"><path fill="url(#__lottie_element_9)" fill-opacity="1" d=" M-93.0250015258789,62.21200180053711 C-94.73100280761719,32.784000396728516 -99.34100341796875,-62.38199996948242 -92.46499633789062,-133.2220001220703 C-92.46499633789062,-133.2220001220703 96.1240005493164,-84.22100067138672 96.1240005493164,-84.22100067138672 C96.1240005493164,-84.22100067138672 96.1240005493164,133.2220001220703 96.1240005493164,133.2220001220703 C96.1240005493164,133.2220001220703 -0.4659999907016754,115.55699920654297 -85.71199798583984,74.56999969482422 C-89.8489990234375,72.58100128173828 -92.7030029296875,67.77300262451172 -93.0250015258789,62.21200180053711z"></path></g><g opacity="0.5" transform="matrix(1,0,0,1,-427.20599365234375,345.4129943847656)"><path stroke="url(#__lottie_element_10)" stroke-linecap="butt" stroke-linejoin="miter" fill-opacity="0" stroke-miterlimit="10" stroke-opacity="1" stroke-width="13" d=" M0,-84.61399841308594 C0,-84.61399841308594 0,-3.1659998893737793 0,-3.1659998893737793 C0,-3.1659998893737793 0,84.61399841308594 0,84.61399841308594"></path></g><g opacity="1" transform="matrix(1,0,0,1,-341.0270080566406,355.45599365234375)"><path stroke-linecap="round" stroke-linejoin="round" fill-opacity="0" stroke="rgb(204,102,10)" stroke-opacity="1" stroke-width="13" d=" M-93.0250015258789,62.21200180053711 C-94.73100280761719,32.784000396728516 -99.34100341796875,-62.38199996948242 -92.46499633789062,-133.2220001220703 C-92.46499633789062,-133.2220001220703 96.1240005493164,-84.22100067138672 96.1240005493164,-84.22100067138672 C96.1240005493164,-84.22100067138672 96.1240005493164,133.2220001220703 96.1240005493164,133.2220001220703 C96.1240005493164,133.2220001220703 -0.4659999907016754,115.55699920654297 -85.71199798583984,74.56999969482422 C-89.8489990234375,72.58100128173828 -92.7030029296875,67.77300262451172 -93.0250015258789,62.21200180053711z"></path></g><g opacity="0.5" transform="matrix(1,0,0,1,-287.2149963378906,426.23199462890625)"><path fill="rgb(226,105,23)" fill-opacity="1" d=" M18.086999893188477,0 C18.086999893188477,13.638999938964844 9.98900032043457,24.69499969482422 0,24.69499969482422 C-9.98900032043457,24.69499969482422 -18.086999893188477,13.638999938964844 -18.086999893188477,0 C-18.086999893188477,-13.638999938964844 -9.98900032043457,-24.69499969482422 0,-24.69499969482422 C9.98900032043457,-24.69499969482422 18.086999893188477,-13.638999938964844 18.086999893188477,0z"></path></g><g opacity="0.5" transform="matrix(1,0,0,1,-320.2449951171875,336.85198974609375)"><path fill="rgb(226,105,23)" fill-opacity="1" d=" M18.086999893188477,0 C18.086999893188477,13.638999938964844 9.98900032043457,24.69499969482422 0,24.69499969482422 C-9.98900032043457,24.69499969482422 -18.086999893188477,13.638999938964844 -18.086999893188477,0 C-18.086999893188477,-13.638999938964844 -9.98900032043457,-24.69499969482422 0,-24.69499969482422 C9.98900032043457,-24.69499969482422 18.086999893188477,-13.638999938964844 18.086999893188477,0z"></path></g><g opacity="0.5" transform="matrix(1,0,0,1,-400.68701171875,370.1809997558594)"><path fill="rgb(211,92,11)" fill-opacity="1" d=" M18.086999893188477,0 C18.086999893188477,13.638999938964844 9.98900032043457,24.69499969482422 0,24.69499969482422 C-9.98900032043457,24.69499969482422 -18.086999893188477,13.638999938964844 -18.086999893188477,0 C-18.086999893188477,-13.638999938964844 -9.98900032043457,-24.69499969482422 0,-24.69499969482422 C9.98900032043457,-24.69499969482422 18.086999893188477,-13.638999938964844 18.086999893188477,0z"></path></g><g opacity="1" transform="matrix(1,0,0,1,-164.24000549316406,347.1839904785156)"><path fill="rgb(255,241,72)" fill-opacity="1" d=" M78.89900207519531,-141.49400329589844 C81.11199951171875,-140.46400451660156 81.2249984741211,-42.20399856567383 79.34400177001953,51.69499969482422 C79.24600219726562,56.59400177001953 76.86199951171875,60.9739990234375 73.44200134277344,63.32099914550781 C54.32099914550781,76.44300079345703 -12.206000328063965,120.10199737548828 -80.66400146484375,141.49400329589844 C-80.66400146484375,141.49400329589844 -80.66400146484375,-75.94999694824219 -80.66400146484375,-75.94999694824219 C-80.66400146484375,-75.94999694824219 78.89900207519531,-141.49400329589844 78.89900207519531,-141.49400329589844z"></path><path stroke-linecap="round" stroke-linejoin="round" fill-opacity="0" stroke="rgb(237,141,46)" stroke-opacity="1" stroke-width="13" d=" M78.89900207519531,-141.49400329589844 C81.11199951171875,-140.46400451660156 81.2249984741211,-42.20399856567383 79.34400177001953,51.69499969482422 C79.24600219726562,56.59400177001953 76.86199951171875,60.9739990234375 73.44200134277344,63.32099914550781 C54.32099914550781,76.44300079345703 -12.206000328063965,120.10199737548828 -80.66400146484375,141.49400329589844 C-80.66400146484375,141.49400329589844 -80.66400146484375,-75.94999694824219 -80.66400146484375,-75.94999694824219 C-80.66400146484375,-75.94999694824219 78.89900207519531,-141.49400329589844 78.89900207519531,-141.49400329589844z"></path></g><g opacity="0.5" transform="matrix(1,0,0,1,-231.02699279785156,371.8800048828125)"><path fill="rgb(237,141,46)" fill-opacity="1" d=" M18.086999893188477,0 C18.086999893188477,13.638999938964844 9.98900032043457,24.69499969482422 0,24.69499969482422 C-9.98900032043457,24.69499969482422 -18.086999893188477,13.638999938964844 -18.086999893188477,0 C-18.086999893188477,-13.638999938964844 -9.98900032043457,-24.69499969482422 0,-24.69499969482422 C9.98900032043457,-24.69499969482422 18.086999893188477,-13.638999938964844 18.086999893188477,0z"></path></g><g opacity="0.5" transform="matrix(1,0,0,1,-103.22699737548828,336.85198974609375)"><path fill="rgb(237,141,46)" fill-opacity="1" d=" M18.086999893188477,0 C18.086999893188477,13.638999938964844 9.98900032043457,24.69499969482422 0,24.69499969482422 C-9.98900032043457,24.69499969482422 -18.086999893188477,13.638999938964844 -18.086999893188477,0 C-18.086999893188477,-13.638999938964844 -9.98900032043457,-24.69499969482422 0,-24.69499969482422 C9.98900032043457,-24.69499969482422 18.086999893188477,-13.638999938964844 18.086999893188477,0z"></path></g><g opacity="0.6" transform="matrix(1,0,0,1,-95.54100036621094,328.9020080566406)"><path stroke="url(#__lottie_element_11)" stroke-linecap="butt" stroke-linejoin="miter" fill-opacity="0" stroke-miterlimit="10" stroke-opacity="1" stroke-width="13" d=" M0,-81.60299682617188 C0,-81.60299682617188 0,81.60299682617188 0,81.60299682617188"></path></g><g opacity="1" transform="matrix(1,0,0,1,-164.24000549316406,347.1839904785156)"><path stroke-linecap="round" stroke-linejoin="round" fill-opacity="0" stroke="rgb(232,130,37)" stroke-opacity="1" stroke-width="13" d=" M78.89900207519531,-141.49400329589844 C81.11199951171875,-140.46400451660156 81.2249984741211,-42.20399856567383 79.34400177001953,51.69499969482422 C79.24600219726562,56.59400177001953 76.86199951171875,60.9739990234375 73.44200134277344,63.32099914550781 C54.32099914550781,76.44300079345703 -12.206000328063965,120.10199737548828 -80.66400146484375,141.49400329589844 C-80.66400146484375,141.49400329589844 -80.66400146484375,-75.94999694824219 -80.66400146484375,-75.94999694824219 C-80.66400146484375,-75.94999694824219 78.89900207519531,-141.49400329589844 78.89900207519531,-141.49400329589844z"></path></g><g opacity="0.5" transform="matrix(1,0,0,1,-175.0260009765625,291.6830139160156)"><path fill="rgb(237,141,46)" fill-opacity="1" d=" M18.086999893188477,0 C18.086999893188477,13.638999938964844 9.98900032043457,24.69499969482422 0,24.69499969482422 C-9.98900032043457,24.69499969482422 -18.086999893188477,13.638999938964844 -18.086999893188477,0 C-18.086999893188477,-13.638999938964844 -9.98900032043457,-24.69499969482422 0,-24.69499969482422 C9.98900032043457,-24.69499969482422 18.086999893188477,-13.638999938964844 18.086999893188477,0z"></path></g><g opacity="0.5" transform="matrix(1,0,0,1,-169.7220001220703,434.5369873046875)"><path fill="rgb(237,141,46)" fill-opacity="1" d=" M18.086999893188477,0 C18.086999893188477,13.638999938964844 9.98900032043457,24.69499969482422 0,24.69499969482422 C-9.98900032043457,24.69499969482422 -18.086999893188477,13.638999938964844 -18.086999893188477,0 C-18.086999893188477,-13.638999938964844 -9.98900032043457,-24.69499969482422 0,-24.69499969482422 C9.98900032043457,-24.69499969482422 18.086999893188477,-13.638999938964844 18.086999893188477,0z"></path></g><g opacity="1" transform="matrix(1,0,0,1,-259.97698974609375,188.5240020751953)"><path fill="rgb(255,241,72)" fill-opacity="1" d=" M-184.69900512695312,-3.7679998874664307 C-184.69900512695312,-3.7679998874664307 -102.45999908447266,-25.46500015258789 -2.555000066757202,-41.696998596191406 C-2.555000066757202,-41.696998596191406 108.97899627685547,-25.506999969482422 184.69900512695312,-16.152999877929688 C184.69900512695312,-16.152999877929688 15.074000358581543,41.696998596191406 15.074000358581543,41.696998596191406 C15.074000358581543,41.696998596191406 -184.69900512695312,-3.7679998874664307 -184.69900512695312,-3.7679998874664307z"></path><path stroke-linecap="round" stroke-linejoin="round" fill-opacity="0" stroke="rgb(232,130,37)" stroke-opacity="1" stroke-width="13" d=" M-184.69900512695312,-3.7679998874664307 C-184.69900512695312,-3.7679998874664307 -102.45999908447266,-25.46500015258789 -2.555000066757202,-41.696998596191406 C-2.555000066757202,-41.696998596191406 108.97899627685547,-25.506999969482422 184.69900512695312,-16.152999877929688 C184.69900512695312,-16.152999877929688 15.074000358581543,41.696998596191406 15.074000358581543,41.696998596191406 C15.074000358581543,41.696998596191406 -184.69900512695312,-3.7679998874664307 -184.69900512695312,-3.7679998874664307z"></path></g><g opacity="0.5" transform="matrix(1,0,0,1,-235.28199768066406,195.64100646972656)"><path fill="rgb(237,141,46)" fill-opacity="1" d=" M0,12.817999839782715 C-13.638999938964844,12.817999839782715 -24.69499969482422,7.078999996185303 -24.69499969482422,0 C-24.69499969482422,-7.078999996185303 -13.638999938964844,-12.817999839782715 0,-12.817999839782715 C13.638999938964844,-12.817999839782715 24.69499969482422,-7.078999996185303 24.69499969482422,0 C24.69499969482422,7.078999996185303 13.638999938964844,12.817999839782715 0,12.817999839782715z"></path></g><g opacity="0.5" transform="matrix(1,0,0,1,-357.90399169921875,182.82200622558594)"><path fill="rgb(237,141,46)" fill-opacity="1" d=" M0,12.817999839782715 C-13.638999938964844,12.817999839782715 -24.69499969482422,7.078999996185303 -24.69499969482422,0 C-24.69499969482422,-7.078999996185303 -13.638999938964844,-12.817999839782715 0,-12.817999839782715 C13.638999938964844,-12.817999839782715 24.69499969482422,-7.078999996185303 24.69499969482422,0 C24.69499969482422,7.078999996185303 13.638999938964844,12.817999839782715 0,12.817999839782715z"></path></g><g opacity="1" transform="matrix(1,0,0,1,-346.406005859375,244.8679962158203)"><path fill="url(#__lottie_element_12)" fill-opacity="1" d=" M-101.47799682617188,3.815999984741211 C-101.59600067138672,-8.015000343322754 -101.41999816894531,-34.32899856567383 -98.2699966430664,-60.11199951171875 C-98.2699966430664,-60.11199951171875 101.50299835205078,-14.647000312805176 101.50299835205078,-14.647000312805176 C101.50299835205078,-14.647000312805176 101.50299835205078,60.11199951171875 101.50299835205078,60.11199951171875 C101.50299835205078,60.11199951171875 -32.00600051879883,29.70199966430664 -96.4000015258789,11.675999641418457 C-99.33899688720703,10.852999687194824 -101.44000244140625,7.605999946594238 -101.47799682617188,3.815999984741211z"></path></g><g opacity="0.5" transform="matrix(1,0,0,1,-279.31298828125,235.97900390625)"><path fill="rgb(226,105,23)" fill-opacity="1" d=" M18.08799934387207,-7.339000225067139 C18.08799934387207,6.302000045776367 9.982999801635742,17.356000900268555 -0.004999999888241291,17.356000900268555 C-9.993000030517578,17.356000900268555 -18.08799934387207,6.302000045776367 -18.08799934387207,-7.339000225067139 C-18.08799934387207,-10.906000137329102 -17.53700065612793,-14.293000221252441 -16.538000106811523,-17.356000900268555 C-16.538000106811523,-17.356000900268555 18.011999130249023,-9.48900032043457 18.011999130249023,-9.48900032043457 C18.069000244140625,-8.78499984741211 18.08799934387207,-8.062000274658203 18.08799934387207,-7.339000225067139z"></path></g><g opacity="0.5" transform="matrix(1,0,0,1,-435.1960144042969,223.3179931640625)"><path stroke="url(#__lottie_element_13)" stroke-linecap="butt" stroke-linejoin="miter" fill-opacity="0" stroke-miterlimit="10" stroke-opacity="1" stroke-width="13" d=" M1.9550000429153442,-34.792999267578125 C1.9550000429153442,-34.792999267578125 -1.9550000429153442,34.792999267578125 -1.9550000429153442,34.792999267578125"></path></g><g opacity="1" transform="matrix(1,0,0,1,-346.406005859375,244.8679962158203)"><path stroke-linecap="round" stroke-linejoin="round" fill-opacity="0" stroke="rgb(204,102,10)" stroke-opacity="1" stroke-width="13" d=" M-101.47799682617188,3.815999984741211 C-101.59600067138672,-8.015000343322754 -101.41999816894531,-34.32899856567383 -98.2699966430664,-60.11199951171875 C-98.2699966430664,-60.11199951171875 101.50299835205078,-14.647000312805176 101.50299835205078,-14.647000312805176 C101.50299835205078,-14.647000312805176 101.50299835205078,60.11199951171875 101.50299835205078,60.11199951171875 C101.50299835205078,60.11199951171875 -32.00600051879883,29.70199966430664 -96.4000015258789,11.675999641418457 C-99.33899688720703,10.852999687194824 -101.44000244140625,7.605999946594238 -101.47799682617188,3.815999984741211z"></path></g><g opacity="0.5" transform="matrix(1,0,0,1,-387.3559875488281,250.30999755859375)"><path fill="rgb(211,92,11)" fill-opacity="1" d=" M18.086999893188477,0 C18.086999893188477,13.638999938964844 9.98900032043457,24.69499969482422 0,24.69499969482422 C-9.98900032043457,24.69499969482422 -18.086999893188477,13.638999938964844 -18.086999893188477,0 C-18.086999893188477,-13.638999938964844 -9.98900032043457,-24.69499969482422 0,-24.69499969482422 C9.98900032043457,-24.69499969482422 18.086999893188477,-13.638999938964844 18.086999893188477,0z"></path></g><g opacity="1" transform="matrix(1,0,0,1,-160.08999633789062,238.67599487304688)"><path fill="rgb(255,241,72)" fill-opacity="1" d=" M-84.81300354003906,66.30400085449219 C-84.81300354003906,66.30400085449219 0.15399999916553497,37.994998931884766 80.56600189208984,0.9629999995231628 C83.11900329589844,-0.21299999952316284 84.81300354003906,-3.2790000438690186 84.81300354003906,-6.702000141143799 C84.81300354003906,-6.702000141143799 84.81300354003906,-66.30400085449219 84.81300354003906,-66.30400085449219 C84.81300354003906,-66.30400085449219 -84.81300354003906,-8.454999923706055 -84.81300354003906,-8.454999923706055 C-84.81300354003906,-8.454999923706055 -84.81300354003906,66.30400085449219 -84.81300354003906,66.30400085449219z"></path></g><g opacity="0.5" transform="matrix(1,0,0,1,-228.9199981689453,284.4549865722656)"><path fill="rgb(237,141,46)" fill-opacity="1" d=" M15.980999946594238,4.247000217437744 C15.980999946594238,6.034999847412109 15.838000297546387,7.785999774932861 15.571999549865723,9.460000038146973 C-2.3399999141693115,15.937999725341797 -14.050000190734863,19.875999450683594 -15.76200008392334,20.44700050354004 C-15.838000297546387,20.33300018310547 -15.904999732971191,20.208999633789062 -15.980999946594238,20.094999313354492 C-15.980999946594238,20.094999313354492 -15.980999946594238,-11.60099983215332 -15.980999946594238,-11.60099983215332 C-12.66100025177002,-17.003999710083008 -7.676000118255615,-20.44700050354004 -2.1019999980926514,-20.44700050354004 C7.886000156402588,-20.44700050354004 15.980999946594238,-9.394000053405762 15.980999946594238,4.247000217437744z"></path></g><g opacity="0.6" transform="matrix(1,0,0,1,-85.13899993896484,208.9709930419922)"><path stroke="url(#__lottie_element_14)" stroke-linecap="butt" stroke-linejoin="miter" fill-opacity="0" stroke-miterlimit="10" stroke-opacity="1" stroke-width="13" d=" M0,-33.236000061035156 C0,-33.236000061035156 0,33.236000061035156 0,33.236000061035156"></path></g><g opacity="1" transform="matrix(1,0,0,1,-160.08999633789062,238.67599487304688)"><path stroke-linecap="round" stroke-linejoin="round" fill-opacity="0" stroke="rgb(232,130,37)" stroke-opacity="1" stroke-width="13" d=" M-84.81300354003906,66.30400085449219 C-84.81300354003906,66.30400085449219 0.15399999916553497,37.994998931884766 80.56600189208984,0.9629999995231628 C83.11900329589844,-0.21299999952316284 84.81300354003906,-3.2790000438690186 84.81300354003906,-6.702000141143799 C84.81300354003906,-6.702000141143799 84.81300354003906,-33.99599838256836 84.81300354003906,-33.99599838256836 C84.81300354003906,-33.99599838256836 84.81300354003906,-66.30400085449219 84.81300354003906,-66.30400085449219 C84.81300354003906,-66.30400085449219 -84.81300354003906,-8.454999923706055 -84.81300354003906,-8.454999923706055 C-84.81300354003906,-8.454999923706055 -84.81300354003906,66.30400085449219 -84.81300354003906,66.30400085449219z"></path></g><g opacity="0.5" transform="matrix(1,0,0,1,-112.09500122070312,201.07200622558594)"><path fill="rgb(237,141,46)" fill-opacity="1" d=" M18.083999633789062,-4.005000114440918 C18.083999633789062,9.63599967956543 9.98799991607666,20.690000534057617 0,20.690000534057617 C-9.98799991607666,20.690000534057617 -18.083999633789062,9.63599967956543 -18.083999633789062,-4.005000114440918 C-18.083999633789062,-6.136000156402588 -17.884000778198242,-8.199999809265137 -17.51300048828125,-10.168999671936035 C-17.51300048828125,-10.168999671936035 -17.51300048828125,-10.178999900817871 -17.51300048828125,-10.178999900817871 C-17.51300048828125,-10.178999900817871 13.32699966430664,-20.690000534057617 13.32699966430664,-20.690000534057617 C16.28499984741211,-16.295000076293945 18.083999633789062,-10.435999870300293 18.083999633789062,-4.005000114440918z"></path></g><g opacity="1" transform="matrix(1,0,0,1,-242.70199584960938,306.47601318359375)"><path fill="rgb(0,206,53)" fill-opacity="1" d=" M-121.38800048828125,-140.50999450683594 C-121.38800048828125,-140.50999450683594 59.540000915527344,-124.90299987792969 69.72699737548828,-100.78500366210938 C79.91400146484375,-76.66699981689453 74.45899963378906,136.2519989013672 73.91500091552734,150.27999877929688 C73.55599975585938,159.54400634765625 118.51699829101562,140.968994140625 120.37200164794922,124.91200256347656 C122.22699737548828,108.8550033569336 122.2969970703125,-102.38099670410156 113.96800231933594,-117.9520034790039 C105.63899993896484,-133.5229949951172 -77.60600280761719,-152.75599670410156 -77.60600280761719,-152.75599670410156 C-77.60600280761719,-152.75599670410156 -97.25499725341797,-151.531005859375 -121.38800048828125,-140.50999450683594z"></path><path stroke-linecap="round" stroke-linejoin="round" fill-opacity="0" stroke="rgb(28,102,14)" stroke-opacity="1" stroke-width="13" d=" M-121.38800048828125,-140.50999450683594 C-121.38800048828125,-140.50999450683594 59.540000915527344,-124.90299987792969 69.72699737548828,-100.78500366210938 C79.91400146484375,-76.66699981689453 74.45899963378906,136.2519989013672 73.91500091552734,150.27999877929688 C73.55599975585938,159.54400634765625 118.51699829101562,140.968994140625 120.37200164794922,124.91200256347656 C122.22699737548828,108.8550033569336 122.2969970703125,-102.38099670410156 113.96800231933594,-117.9520034790039 C105.63899993896484,-133.5229949951172 -77.60600280761719,-152.75599670410156 -77.60600280761719,-152.75599670410156 C-77.60600280761719,-152.75599670410156 -97.25499725341797,-151.531005859375 -121.38800048828125,-140.50999450683594z"></path></g><g opacity="0.4" transform="matrix(1,0,0,1,-150.85499572753906,197.10800170898438)"><path stroke="url(#__lottie_element_15)" stroke-linecap="butt" stroke-linejoin="miter" fill-opacity="0" stroke-miterlimit="10" stroke-opacity="1" stroke-width="13" d=" M22.121000289916992,-8.583000183105469 C22.121000289916992,-8.583000183105469 -22.121000289916992,8.583000183105469 -22.121000289916992,8.583000183105469"></path></g><g opacity="1" transform="matrix(1,0,0,1,-242.70199584960938,306.47601318359375)"><path stroke-linecap="round" stroke-linejoin="round" fill-opacity="0" stroke="rgb(28,102,14)" stroke-opacity="1" stroke-width="13" d=" M-121.38800048828125,-140.50999450683594 C-121.38800048828125,-140.50999450683594 59.540000915527344,-124.90299987792969 69.72699737548828,-100.78500366210938 C79.91400146484375,-76.66699981689453 74.45899963378906,136.2519989013672 73.91500091552734,150.27999877929688 C73.55599975585938,159.54400634765625 118.51699829101562,140.968994140625 120.37200164794922,124.91200256347656 C122.22699737548828,108.8550033569336 122.2969970703125,-102.38099670410156 113.96800231933594,-117.9520034790039 C105.63899993896484,-133.5229949951172 -77.60600280761719,-152.75599670410156 -77.60600280761719,-152.75599670410156 C-77.60600280761719,-152.75599670410156 -97.25499725341797,-151.531005859375 -121.38800048828125,-140.50999450683594z"></path></g><g opacity="1" transform="matrix(1,0,0,1,-271.3450012207031,312.156005859375)"><path fill="url(#__lottie_element_16)" fill-opacity="1" d=" M-109.09500122070312,139.2429962158203 C-109.09500122070312,139.2429962158203 -116.05899810791016,-70.54299926757812 -104.9749984741211,-111.84300231933594 C-101.96700286865234,-123.04900360107422 8.208000183105469,-149.92100524902344 65.38700103759766,-158.43600463867188 C65.38700103759766,-158.43600463867188 111.25399780273438,-153.63699340820312 111.25399780273438,-153.63699340820312 C111.25399780273438,-153.63699340820312 -26.336000442504883,-120.33200073242188 -44.54800033569336,-98.09100341796875 C-62.7599983215332,-75.8489990234375 -54.48500061035156,148.37100219726562 -54.637001037597656,156.19700622558594 C-54.78900146484375,164.0229949951172 -108.5780029296875,149.6280059814453 -109.09500122070312,139.2429962158203z"></path><path stroke-linecap="round" stroke-linejoin="round" fill-opacity="0" stroke="rgb(18,76,4)" stroke-opacity="1" stroke-width="13" d=" M-109.09500122070312,139.2429962158203 C-109.09500122070312,139.2429962158203 -116.05899810791016,-70.54299926757812 -104.9749984741211,-111.84300231933594 C-101.96700286865234,-123.04900360107422 8.208000183105469,-149.92100524902344 65.38700103759766,-158.43600463867188 C65.38700103759766,-158.43600463867188 111.25399780273438,-153.63699340820312 111.25399780273438,-153.63699340820312 C111.25399780273438,-153.63699340820312 -26.336000442504883,-120.33200073242188 -44.54800033569336,-98.09100341796875 C-62.7599983215332,-75.8489990234375 -54.48500061035156,148.37100219726562 -54.637001037597656,156.19700622558594 C-54.78900146484375,164.0229949951172 -108.5780029296875,149.6280059814453 -109.09500122070312,139.2429962158203z"></path></g><g opacity="0.4" transform="matrix(1,0,0,1,-346.1059875488281,207.18899536132812)"><path stroke="url(#__lottie_element_17)" stroke-linecap="butt" stroke-linejoin="miter" fill-opacity="0" stroke-miterlimit="10" stroke-opacity="1" stroke-width="13" d=" M-30.21299934387207,-6.875999927520752 C-30.21299934387207,-6.875999927520752 30.21299934387207,6.875999927520752 30.21299934387207,6.875999927520752"></path></g><g opacity="1" transform="matrix(1,0,0,1,-271.3450012207031,312.156005859375)"><path stroke-linecap="round" stroke-linejoin="round" fill-opacity="0" stroke="rgb(18,76,4)" stroke-opacity="1" stroke-width="13" d=" M-109.09500122070312,139.2429962158203 C-109.09500122070312,139.2429962158203 -116.05899810791016,-70.54299926757812 -104.9749984741211,-111.84300231933594 C-101.96700286865234,-123.04900360107422 8.208000183105469,-149.92100524902344 65.38700103759766,-158.43600463867188 C65.38700103759766,-158.43600463867188 111.25399780273438,-153.63699340820312 111.25399780273438,-153.63699340820312 C111.25399780273438,-153.63699340820312 -26.336000442504883,-120.33200073242188 -44.54800033569336,-98.09100341796875 C-62.7599983215332,-75.8489990234375 -54.48500061035156,148.37100219726562 -54.637001037597656,156.19700622558594 C-54.78900146484375,164.0229949951172 -108.5780029296875,149.6280059814453 -109.09500122070312,139.2429962158203z"></path></g></g><g style="display: block;" transform="matrix(1,0,0,1,572,0)" opacity="1"><g opacity="1" transform="matrix(1,0,0,1,-340.31500244140625,110.55000305175781)"><path fill="rgb(0,206,53)" fill-opacity="1" d=" M69.85099792480469,39.53799819946289 C69.85099792480469,39.53799819946289 33.209999084472656,-66.34200286865234 -11.097000122070312,-62.88600158691406 C-55.40399932861328,-59.43000030517578 -85.22799682617188,27.2189998626709 -61.45100021362305,44.44900131225586 C-37.67399978637695,61.67900085449219 56.79999923706055,62.96799850463867 56.79999923706055,62.96799850463867 C56.79999923706055,62.96799850463867 69.85099792480469,39.53799819946289 69.85099792480469,39.53799819946289z"></path></g><g opacity="0.5" transform="matrix(1,0,0,1,-341.7959899902344,92.77799987792969)"><path stroke="url(#__lottie_element_28)" stroke-linecap="butt" stroke-linejoin="miter" fill-opacity="0" stroke-miterlimit="10" stroke-opacity="1" stroke-width="13" d=" M-62.47999954223633,9.01200008392334 C-50.534000396728516,-15.343999862670898 -26.34000015258789,-35.12699890136719 -9.866999626159668,-35.12699890136719 C16.6299991607666,-35.12699890136719 62.47999954223633,35.12699890136719 62.47999954223633,35.12699890136719"></path></g><g opacity="1" transform="matrix(1,0,0,1,-340.31500244140625,110.55000305175781)"><path stroke-linecap="round" stroke-linejoin="round" fill-opacity="0" stroke="rgb(28,102,14)" stroke-opacity="1" stroke-width="13" d=" M69.85099792480469,39.53799819946289 C69.85099792480469,39.53799819946289 33.209999084472656,-66.34200286865234 -11.097000122070312,-62.88600158691406 C-55.40399932861328,-59.43000030517578 -85.22799682617188,27.2189998626709 -61.45100021362305,44.44900131225586 C-37.67399978637695,61.67900085449219 56.79999923706055,62.96799850463867 56.79999923706055,62.96799850463867 C56.79999923706055,62.96799850463867 69.85099792480469,39.53799819946289 69.85099792480469,39.53799819946289z"></path></g><g opacity="1" transform="matrix(1,0,0,1,-344.4460144042969,152.2449951171875)"><path fill="rgb(0,155,40)" fill-opacity="1" d=" M65.12999725341797,13.720999717712402 C65.12999725341797,13.720999717712402 60.926998138427734,21.26799964904785 60.926998138427734,21.26799964904785 C60.926998138427734,21.26799964904785 -33.5369987487793,19.979000091552734 -57.316001892089844,2.749000072479248 C-61.54199981689453,-0.3050000071525574 -64.072998046875,-5.541999816894531 -65.12999725341797,-12.125 C-65.12999725341797,-12.125 -65.12999725341797,-12.13599967956543 -65.12999725341797,-12.13599967956543 C-50.70899963378906,-38.840999603271484 36.79999923706055,0.19499999284744263 65.12999725341797,13.720999717712402z"></path><path stroke-linecap="round" stroke-linejoin="round" fill-opacity="0" stroke="rgb(18,76,4)" stroke-opacity="1" stroke-width="13" d=" M65.12999725341797,13.720999717712402 C65.12999725341797,13.720999717712402 60.926998138427734,21.26799964904785 60.926998138427734,21.26799964904785 C60.926998138427734,21.26799964904785 -33.5369987487793,19.979000091552734 -57.316001892089844,2.749000072479248 C-61.54199981689453,-0.3050000071525574 -64.072998046875,-5.541999816894531 -65.12999725341797,-12.125 C-65.12999725341797,-12.125 -65.12999725341797,-12.13599967956543 -65.12999725341797,-12.13599967956543 C-50.70899963378906,-38.840999603271484 36.79999923706055,0.19499999284744263 65.12999725341797,13.720999717712402z"></path></g></g><g style="display: block;" transform="matrix(1,0,0,1,572,0)" opacity="1"><g opacity="1" transform="matrix(1,0,0,1,-178.0229949951172,101.79000091552734)"><path fill="rgb(0,206,53)" fill-opacity="1" d=" M-65.052001953125,48.766998291015625 C-54.97700119018555,-16.80900001525879 -30.39900016784668,-65.21499633789062 -4.36899995803833,-71.37999725341797 C21.660999298095703,-77.54499816894531 69.61000061035156,-1.5110000371932983 69.61000061035156,22.464000701904297 C69.61000061035156,46.43899917602539 -24.91900062561035,72.3489990234375 -53.00400161743164,71.7239990234375 C-81.08899688720703,71.0989990234375 -65.052001953125,48.766998291015625 -65.052001953125,48.766998291015625z"></path></g><g opacity="0.5" transform="matrix(1,0,0,1,-179.53799438476562,82.76399993896484)"><path stroke="url(#__lottie_element_24)" stroke-linecap="butt" stroke-linejoin="miter" fill-opacity="0" stroke-miterlimit="10" stroke-opacity="1" stroke-width="13" d=" M-58.2239990234375,40.19900131225586 C-58.2239990234375,40.19900131225586 -22.4060001373291,-38.72800064086914 -1.2719999551773071,-40.16400146484375 C20.93000030517578,-41.67300033569336 58.2239990234375,6.035999774932861 58.2239990234375,6.035999774932861"></path></g><g opacity="1" transform="matrix(1,0,0,1,-178.0229949951172,101.79000091552734)"><path stroke-linecap="round" stroke-linejoin="round" fill-opacity="0" stroke="rgb(28,102,14)" stroke-opacity="1" stroke-width="13" d=" M-65.052001953125,48.766998291015625 C-54.97700119018555,-16.80900001525879 -30.39900016784668,-65.21499633789062 -4.36899995803833,-71.37999725341797 C21.660999298095703,-77.54499816894531 69.61000061035156,-1.5110000371932983 69.61000061035156,22.464000701904297 C69.61000061035156,46.43899917602539 -24.91900062561035,72.3489990234375 -53.00400161743164,71.7239990234375 C-81.08899688720703,71.0989990234375 -65.052001953125,48.766998291015625 -65.052001953125,48.766998291015625z"></path></g><g opacity="1" transform="matrix(1,0,0,1,-169.7220001220703,139.6580047607422)"><path fill="rgb(0,155,40)" fill-opacity="1" d=" M61.30400085449219,-15.409000396728516 C61.30400085449219,8.567000389099121 -33.21799850463867,34.483001708984375 -61.30400085449219,33.85599899291992 C-33.48500061035156,6.478000164031982 48.50899887084961,-50.66999816894531 58.35499954223633,-29.108999252319336 C60.24800109863281,-23.687000274658203 61.30400085449219,-18.972999572753906 61.30400085449219,-15.409000396728516z"></path><path stroke-linecap="round" stroke-linejoin="round" fill-opacity="0" stroke="rgb(18,76,4)" stroke-opacity="1" stroke-width="13" d=" M61.30400085449219,-15.409000396728516 C61.30400085449219,8.567000389099121 -33.21799850463867,34.483001708984375 -61.30400085449219,33.85599899291992 C-33.48500061035156,6.478000164031982 48.50899887084961,-50.66999816894531 58.35499954223633,-29.108999252319336 C60.24800109863281,-23.687000274658203 61.30400085449219,-18.972999572753906 61.30400085449219,-15.409000396728516z"></path></g></g><g style="display: block;" transform="matrix(1,0,0,1,572,0)" opacity="1"><g opacity="1" transform="matrix(1,0,0,1,-255.7220001220703,159.27000427246094)"><path fill="rgb(0,206,53)" fill-opacity="1" d=" M31.572999954223633,15.86299991607666 C33.85900115966797,12.696999549865723 23.148000717163086,-18.98900032043457 -7.2220001220703125,-23.3799991607666 C-29.334999084472656,-26.57699966430664 -35.39899826049805,15.779999732971191 -30.041000366210938,19.437999725341797 C-24.683000564575195,23.09600067138672 22.867000579833984,27.917999267578125 31.572999954223633,15.86299991607666z"></path><path stroke-linecap="round" stroke-linejoin="round" fill-opacity="0" stroke="rgb(0,79,0)" stroke-opacity="1" stroke-width="13" d=" M31.572999954223633,15.86299991607666 C33.85900115966797,12.696999549865723 23.148000717163086,-18.98900032043457 -7.2220001220703125,-23.3799991607666 C-29.334999084472656,-26.57699966430664 -35.39899826049805,15.779999732971191 -30.041000366210938,19.437999725341797 C-24.683000564575195,23.09600067138672 22.867000579833984,27.917999267578125 31.572999954223633,15.86299991607666z"></path></g><g opacity="0.4" transform="matrix(1,0,0,1,-256.8179931640625,156.11599731445312)"><path stroke="url(#__lottie_element_20)" stroke-linecap="butt" stroke-linejoin="miter" fill-opacity="0" stroke-miterlimit="10" stroke-opacity="1" stroke-width="13" d=" M-30.347999572753906,9.336999893188477 C-30.347999572753906,9.336999893188477 -20.58300018310547,-8.137999534606934 -5.714000225067139,-9.288999557495117 C9.154999732971191,-10.4399995803833 30.347999572753906,9.336999893188477 30.347999572753906,9.336999893188477"></path></g><g opacity="1" transform="matrix(1,0,0,1,-255.7220001220703,159.27000427246094)"><path stroke-linecap="round" stroke-linejoin="round" fill-opacity="0" stroke="rgb(18,76,4)" stroke-opacity="1" stroke-width="13" d=" M31.572999954223633,15.86299991607666 C33.85900115966797,12.696999549865723 23.148000717163086,-18.98900032043457 -7.2220001220703125,-23.3799991607666 C-29.334999084472656,-26.57699966430664 -35.39899826049805,15.779999732971191 -30.041000366210938,19.437999725341797 C-24.683000564575195,23.09600067138672 22.867000579833984,27.917999267578125 31.572999954223633,15.86299991607666z"></path></g></g></g></svg>